<svg width="30" height="30" viewBox="0 0 30 30" fill="none" xmlns="http://www.w3.org/2000/svg">
<path d="M16.25 22.5H13.75V20H16.25V22.5ZM11.25 18.75V23.75C11.25 24.4375 11.8125 25 12.5 25H17.5C18.1875 25 18.75 24.4375 18.75 23.75V18.75C18.75 18.0625 18.1875 17.5 17.5 17.5H12.5C11.8125 17.5 11.25 18.0625 11.25 18.75ZM23.75 11.625V6.25C23.75 5.5625 23.1875 5 22.5 5H21.25C20.5625 5 20 5.5625 20 6.25V8.25L15.8375 4.5C15.3625 4.075 14.6375 4.075 14.1625 4.5L3.7125 13.9125C3.2875 14.2875 3.55 15 4.125 15H5.7625C6.075 15 6.375 14.8875 6.6 14.675L15 7.1125L23.3875 14.675C23.625 14.8875 23.925 15 24.225 15H25.8625C26.4375 15 26.7125 14.2875 26.275 13.9125L23.75 11.625Z" fill="#082032"/>
</svg>
