<svg width="29" height="29" viewBox="0 0 29 29" fill="none" xmlns="http://www.w3.org/2000/svg">
<path d="M6.04167 6.04167H13.2917C13.9563 6.04167 14.5 5.49792 14.5 4.83333C14.5 4.16875 13.9563 3.625 13.2917 3.625H6.04167C4.7125 3.625 3.625 4.7125 3.625 6.04167V22.9583C3.625 24.2875 4.7125 25.375 6.04167 25.375H13.2917C13.9563 25.375 14.5 24.8313 14.5 24.1667C14.5 23.5021 13.9563 22.9583 13.2917 22.9583H6.04167V6.04167Z" fill="#082032"/>
<path d="M24.9521 14.0771L21.5808 10.7058C21.1942 10.3192 20.5417 10.585 20.5417 11.1287V13.2917H12.0833C11.4187 13.2917 10.875 13.8354 10.875 14.5C10.875 15.1646 11.4187 15.7083 12.0833 15.7083H20.5417V17.8712C20.5417 18.415 21.1942 18.6808 21.5687 18.2942L24.94 14.9229C25.1817 14.6933 25.1817 14.3067 24.9521 14.0771Z" fill="#082032"/>
</svg>
